<?xml version="1.0" encoding="utf-8"?>
<!-- Generator: Adobe Illustrator 15.0.0, SVG Export Plug-In  -->
<!DOCTYPE svg PUBLIC "-//W3C//DTD SVG 1.1//EN" "http://www.w3.org/Graphics/SVG/1.1/DTD/svg11.dtd" [
	<!ENTITY ns_flows "http://ns.adobe.com/Flows/1.0/">
]>
<svg version="1.1"
	 xmlns="http://www.w3.org/2000/svg" xmlns:xlink="http://www.w3.org/1999/xlink" xmlns:a="http://ns.adobe.com/AdobeSVGViewerExtensions/3.0/"
	 x="0px" y="0px" width="121px" height="121px" viewBox="-0.069 0.051 121 121" enable-background="new -0.069 0.051 121 121"
	 xml:space="preserve">
<defs>
</defs>
<circle fill="none" stroke="#16A5B5" stroke-width="2" stroke-miterlimit="10" cx="60.431" cy="60.551" r="50.5"/>
<path fill="#16A6B6" stroke="#FFFFFF" stroke-width="2" stroke-miterlimit="10" d="M25.097,12.634l3.418,4.667
	c0,0,6.166-4.5,12.332-6.75l-2.166-5.333C38.681,5.218,33.431,6.718,25.097,12.634z"/>
<path fill="#16A6B6" stroke="#FFFFFF" stroke-width="2" stroke-miterlimit="10" d="M53.774,1.413l0.678,5.744
	c0,0,7.581-0.882,14.057,0.194l0.739-5.708C69.248,1.643,63.939,0.364,53.774,1.413z"/>
<path fill="#16A6B6" stroke="#FFFFFF" stroke-width="2" stroke-miterlimit="10" d="M5.875,36.805l5.309,2.296
	c0,0,3.042-7.001,7.222-12.062l-4.566-3.504C13.839,23.535,10.069,27.485,5.875,36.805z"/>
<path fill="#16A6B6" stroke="#FFFFFF" stroke-width="2" stroke-miterlimit="10" d="M1.315,67.254l5.753-0.6
	c0,0-0.779-7.594,0.384-14.053l-5.697-0.817C1.755,51.784,0.405,57.075,1.315,67.254z"/>
<path fill="#16A6B6" stroke="#FFFFFF" stroke-width="2" stroke-miterlimit="10" d="M12.587,95.977l4.688-3.389
	c0,0-4.46-6.195-6.673-12.374l-5.345,2.132C5.258,82.346,6.726,87.605,12.587,95.977z"/>
<path fill="#16A6B6" stroke="#FFFFFF" stroke-width="2" stroke-miterlimit="10" d="M36.594,115.195l2.301-5.308
	c0,0-6.997-3.049-12.056-7.231l-3.506,4.562C23.333,107.218,27.279,110.99,36.594,115.195z"/>
<path fill="#16A6B6" stroke="#FFFFFF" stroke-width="2" stroke-miterlimit="10" d="M67.253,119.884l-0.593-5.753
	c0,0-7.595,0.768-14.053-0.4l-0.822,5.693C51.785,119.424,57.073,120.78,67.253,119.884z"/>
<path fill="#16A6B6" stroke="#FFFFFF" stroke-width="2" stroke-miterlimit="10" d="M97.708,13.681l-3.544,4.572
	c0,0-6.041-4.666-12.144-7.083l2.31-5.272C84.33,5.898,89.538,7.541,97.708,13.681z"/>
<path fill="#16A6B6" stroke="#FFFFFF" stroke-width="2" stroke-miterlimit="10" d="M116.007,38.623l-5.364,2.165
	c0,0-2.869-7.073-6.925-12.234l4.651-3.391C108.369,25.163,112.041,29.204,116.007,38.623z"/>
<path fill="#16A6B6" stroke="#FFFFFF" stroke-width="2" stroke-miterlimit="10" d="M119.539,69.193l-5.724-0.836
	c0,0,1.091-7.554,0.194-14.056l5.726-0.582C119.735,53.719,120.866,59.062,119.539,69.193z"/>
<path fill="#16A6B6" stroke="#FFFFFF" stroke-width="2" stroke-miterlimit="10" d="M107.229,97.74l-4.527-3.601
	c0,0,4.741-5.982,7.237-12.054l5.24,2.377C115.18,84.463,113.471,89.648,107.229,97.74z"/>
<path fill="#16A6B6" stroke="#FFFFFF" stroke-width="2" stroke-miterlimit="10" d="M82.325,115.947l-2.221-5.342
	c0,0,7.042-2.942,12.164-7.049l3.437,4.615C95.705,108.172,91.702,111.884,82.325,115.947z"/>
</svg>
